<?xml version="1.0" standalone="no"?>
<!DOCTYPE svg PUBLIC "-//W3C//DTD SVG 20010904//EN"
 "http://www.w3.org/TR/2001/REC-SVG-20010904/DTD/svg10.dtd">
<svg version="1.0" xmlns="http://www.w3.org/2000/svg"
 width="528.000000pt" height="528.000000pt" viewBox="0 0 528.000000 528.000000"
 preserveAspectRatio="xMidYMid meet">

<g transform="translate(0.000000,528.000000) scale(0.100000,-0.100000)"
fill="#000000" stroke="none">
<path d="M2525 4136 c-150 -36 -331 -174 -375 -283 -7 -18 -15 -33 -19 -34 -3
0 -58 -2 -121 -3 -125 -3 -179 -17 -290 -77 -79 -42 -191 -155 -230 -233 -119
-240 -85 -479 94 -660 81 -81 123 -111 219 -155 l67 -31 0 -250 c0 -235 -1
-249 -19 -255 -10 -3 -30 0 -45 6 -25 12 -26 14 -26 108 0 53 -5 116 -11 141
-19 86 -71 176 -132 230 -16 14 -40 35 -53 48 -14 12 -30 22 -36 22 -6 0 -19
6 -27 14 -9 7 -52 26 -96 42 -70 25 -94 28 -190 28 -117 0 -163 -13 -185 -53
-5 -11 -15 -62 -22 -114 -23 -183 16 -320 125 -443 27 -29 46 -58 42 -64 -3
-6 -21 -18 -38 -27 -33 -17 -173 -126 -194 -150 -6 -8 -39 -21 -72 -29 -79
-18 -127 -49 -215 -140 -48 -49 -80 -74 -95 -74 -48 0 -155 -64 -227 -136
-123 -123 -168 -232 -168 -399 0 -103 29 -231 60 -266 8 -8 14 -20 14 -26 0
-5 34 -45 75 -89 42 -43 80 -84 86 -90 7 -8 2 -24 -16 -49 -25 -37 -25 -41
-27 -244 -3 -323 -3 -375 1 -388 2 -10 467 -13 2282 -13 l2279 0 0 297 0 297
-26 38 c-15 21 -30 38 -35 38 -13 0 -49 42 -49 57 0 7 23 38 51 69 28 31 63
82 78 113 24 52 26 65 26 201 l0 145 -35 65 c-33 61 -35 72 -40 185 -5 113 -8
125 -43 200 -26 55 -55 96 -91 131 -56 54 -58 55 -276 179 -158 90 -148 74
-116 185 23 78 31 213 17 294 -31 178 -123 313 -294 434 -57 40 -191 92 -237
92 -28 0 -29 10 -9 70 22 69 24 202 4 289 -61 258 -333 461 -587 436 l-67 -6
-37 58 c-50 78 -74 107 -137 158 -66 53 -164 100 -241 114 -77 14 -207 13
-271 -3z m227 -187 c123 -26 232 -111 289 -228 27 -55 33 -80 38 -162 7 -114
17 -131 74 -127 54 4 79 38 85 115 3 32 10 61 16 65 37 25 184 -3 263 -49 141
-82 208 -274 154 -440 -55 -170 -187 -264 -353 -250 -70 6 -120 26 -201 79
-40 26 -52 30 -75 22 -14 -5 -33 -21 -41 -35 -12 -22 -12 -29 4 -63 23 -47
108 -112 199 -152 l66 -28 0 -287 0 -286 -147 -43 c-138 -40 -160 -43 -318
-51 -233 -12 -398 2 -570 46 -75 19 -144 39 -155 45 -19 10 -20 22 -20 299 l0
288 65 34 c123 63 161 134 101 186 -36 31 -53 29 -121 -12 -125 -75 -273 -55
-380 51 -185 185 -127 505 111 616 132 62 268 45 307 -37 21 -45 58 -55 95
-28 24 18 28 29 33 100 7 98 40 163 115 232 104 95 227 129 366 100z m1211
-1161 c88 -41 166 -122 213 -221 39 -81 39 -83 39 -202 0 -104 -3 -128 -24
-180 -45 -110 -113 -196 -195 -245 -74 -44 -71 -9 -74 -810 -2 -655 -4 -716
-19 -727 -24 -19 -157 -17 -172 1 -9 11 -12 181 -10 693 2 373 -1 709 -5 746
l-8 68 -52 33 c-103 66 -175 165 -211 291 -23 79 -16 227 14 306 44 116 140
217 249 260 69 28 178 22 255 -13z m-2557 -223 c36 -15 103 -63 73 -52 -9 3
-16 0 -16 -6 1 -7 -3 -30 -7 -51 -11 -49 10 -118 58 -199 l35 -58 -37 7 c-108
19 -204 76 -249 146 -47 75 -63 205 -27 234 16 13 118 1 170 -21z m128 -561
c33 -13 13 -32 -76 -72 -51 -24 -114 -56 -140 -72 -95 -60 -143 -169 -119
-272 6 -28 9 -53 7 -56 -3 -2 -28 18 -57 44 l-51 49 4 70 c7 107 54 181 158
247 58 37 112 52 247 67 6 0 18 -2 27 -5z m633 -149 c171 -60 390 -151 411
-170 11 -10 13 -123 13 -595 -1 -321 -3 -585 -5 -588 -2 -2 -22 10 -44 26 -41
29 -160 73 -412 152 -74 23 -138 47 -142 54 -4 6 -8 273 -8 594 0 497 2 582
14 582 8 0 86 -25 173 -55z m1183 -526 c0 -470 -3 -583 -13 -594 -8 -7 -74
-32 -148 -55 -252 -79 -370 -123 -411 -152 -22 -16 -41 -28 -43 -26 -3 3 -9
1148 -6 1173 1 6 16 16 34 24 17 8 70 31 117 52 73 32 218 86 380 142 25 8 55
16 68 16 l22 1 0 -581z m1306 430 c34 -17 58 -40 78 -72 26 -43 30 -59 36
-165 6 -95 14 -139 45 -236 35 -111 37 -124 32 -210 -7 -127 -34 -194 -112
-272 -83 -84 -146 -109 -275 -108 -74 0 -108 5 -151 23 -152 59 -260 231 -246
390 9 97 33 155 104 248 83 110 115 163 148 252 49 129 121 183 236 178 36 -2
74 -12 105 -28z m-3779 -245 c60 -16 152 -86 204 -152 59 -77 58 -81 -17 -76
-325 19 -499 -194 -371 -456 43 -90 36 -96 -56 -52 -315 147 -339 579 -40 719
96 44 168 49 280 17z m527 -425 c65 -110 209 -233 318 -272 58 -21 63 -25 66
-55 l3 -32 -63 0 c-85 0 -147 30 -238 116 -115 109 -146 170 -124 252 8 30 16
28 38 -9z"/>
<path d="M2177 2452 c-24 -26 -21 -69 6 -96 28 -28 117 -63 217 -84 112 -23
408 -23 520 1 194 42 260 80 244 141 -3 15 -17 34 -30 43 -22 14 -30 13 -102
-6 -243 -65 -502 -67 -708 -5 -98 29 -126 30 -147 6z"/>
<path d="M2079 1684 c-11 -14 -9 -19 11 -35 14 -10 33 -19 42 -19 10 0 43 -13
73 -30 30 -16 69 -30 86 -30 16 0 46 -8 67 -19 53 -27 122 -37 122 -18 0 13
-114 77 -139 77 -6 0 -29 11 -52 25 -22 14 -44 23 -49 20 -6 -4 -35 5 -65 19
-63 30 -78 32 -96 10z"/>
<path d="M2125 1520 c-17 -19 -17 -20 1 -26 11 -3 33 -12 51 -20 17 -8 37 -14
45 -14 7 0 40 -12 73 -26 33 -13 80 -29 105 -34 25 -5 53 -12 63 -15 13 -6 17
-2 17 14 0 12 -5 21 -11 21 -6 0 -23 9 -38 19 -15 11 -45 22 -66 26 -51 9
-106 26 -124 39 -13 10 -79 36 -92 36 -3 0 -14 -9 -24 -20z"/>
<path d="M2107 1373 c-23 -22 32 -57 111 -68 34 -6 42 -4 42 9 0 18 -30 36
-60 36 -12 0 -28 7 -36 15 -16 16 -46 20 -57 8z"/>
<path d="M2363 1313 c-7 -2 -13 -11 -13 -19 0 -8 6 -14 13 -14 6 0 25 -7 41
-15 36 -19 87 -24 93 -9 3 10 -53 44 -82 50 -5 1 -17 4 -25 7 -8 3 -21 3 -27
0z m78 -40 c13 -16 12 -17 -3 -4 -17 13 -22 21 -14 21 2 0 10 -8 17 -17z"/>
<path d="M2060 1218 c0 -16 72 -58 99 -58 11 0 22 -4 25 -9 4 -5 30 -12 59
-16 28 -4 77 -15 107 -25 91 -30 130 -35 130 -16 0 9 -12 21 -27 27 -16 6 -39
17 -54 25 -14 7 -50 16 -80 20 -29 4 -63 13 -74 20 -11 8 -33 14 -50 14 -17 0
-40 7 -51 15 -24 18 -84 20 -84 3z"/>
<path d="M2066 1081 c-18 -20 -18 -21 0 -27 11 -3 29 -10 42 -15 13 -5 36 -9
52 -9 40 0 41 33 3 48 -59 23 -78 24 -97 3z"/>
<path d="M2240 1022 c0 -28 3 -30 47 -37 26 -4 69 -15 95 -26 65 -25 98 -25
98 1 0 13 -9 22 -27 26 -16 4 -40 13 -56 21 -15 7 -46 18 -70 23 -23 4 -52 12
-64 15 -20 7 -23 4 -23 -23z"/>
<path d="M2074 918 c-10 -15 32 -48 63 -48 13 0 34 -5 46 -12 12 -6 51 -18 87
-25 35 -8 75 -20 87 -28 28 -18 93 -20 93 -2 0 17 -65 57 -93 57 -12 0 -40 9
-62 20 -22 11 -53 20 -70 20 -17 0 -40 7 -51 15 -23 17 -90 20 -100 3z"/>
<path d="M3181 1679 c-24 -5 -50 -14 -58 -21 -13 -10 -11 -14 9 -30 32 -24 69
-22 96 6 40 43 25 57 -47 45z"/>
<path d="M3020 1613 c-8 -2 -24 -8 -35 -12 -11 -5 -33 -14 -48 -20 -15 -6 -37
-11 -48 -11 -38 0 -76 -27 -76 -55 0 -25 23 -34 43 -16 12 11 96 31 133 31 30
0 81 42 81 66 0 9 -25 27 -33 23 -1 0 -9 -3 -17 -6z"/>
<path d="M3184 1521 c-22 -15 -56 -31 -76 -35 -19 -3 -57 -17 -84 -30 -28 -13
-75 -27 -106 -31 -60 -8 -95 -32 -85 -60 7 -17 52 -21 62 -5 3 6 30 10 59 10
32 0 58 5 64 13 6 7 34 19 62 27 28 8 56 22 61 32 5 10 20 18 32 18 33 1 90
51 81 73 -9 23 -22 21 -70 -12z"/>
<path d="M3215 1363 c-11 -3 -24 -9 -29 -14 -6 -5 -20 -9 -32 -9 -13 0 -26 -4
-29 -10 -3 -5 -14 -10 -24 -10 -10 0 -46 -12 -82 -27 -35 -15 -91 -29 -123
-32 -41 -4 -62 -11 -70 -23 -26 -42 92 -68 128 -29 10 10 32 21 49 24 84 15
124 24 142 34 11 6 41 21 68 32 38 17 47 26 47 46 0 25 -6 27 -45 18z"/>
<path d="M3206 1193 c-15 -3 -44 -13 -62 -24 -19 -10 -47 -19 -63 -19 -25 0
-61 -26 -61 -44 0 -14 45 -24 59 -13 19 16 117 53 164 62 20 4 27 11 25 23 -4
18 -17 22 -62 15z"/>
<path d="M2898 1103 c-47 -4 -75 -23 -63 -43 8 -13 113 -3 133 12 18 15 15 38
-5 36 -10 -1 -39 -3 -65 -5z"/>
<path d="M3210 1045 c-14 -8 -37 -14 -52 -15 -15 0 -52 -11 -83 -24 -30 -14
-55 -23 -55 -21 0 2 -21 -2 -47 -10 -27 -8 -58 -15 -70 -15 -12 0 -35 -11 -50
-25 l-28 -24 25 -2 c41 -2 74 2 95 13 10 6 33 11 49 10 17 0 35 3 41 7 13 10
122 48 160 56 41 8 69 31 62 50 -8 18 -15 18 -47 0z"/>
<path d="M3230 915 c-7 -8 -23 -15 -36 -15 -12 0 -26 -4 -29 -10 -3 -5 -14
-10 -24 -10 -20 0 -55 -33 -45 -43 11 -11 97 5 147 27 36 16 47 26 47 43 0 18
-6 23 -24 23 -13 0 -29 -7 -36 -15z"/>
<path d="M2920 831 c-45 -9 -60 -18 -60 -37 0 -13 10 -14 58 -8 66 8 92 19 92
39 0 16 -29 18 -90 6z"/>
<path d="M4410 1294 c-84 -36 -152 -147 -134 -221 12 -51 43 -101 80 -130 30
-22 49 -28 103 -31 60 -3 70 -1 113 28 134 89 109 291 -44 354 -46 20 -73 20
-118 0z m92 -33 c32 -12 78 -81 78 -117 0 -59 -71 -134 -129 -134 -14 0 -39
16 -62 39 -34 34 -39 44 -39 85 0 73 25 108 90 129 23 8 37 8 62 -2z"/>
</g>
</svg>
